<svg width="32" height="32" viewBox="0 0 32 32" fill="none" xmlns="http://www.w3.org/2000/svg">
<rect width="32" height="32" rx="8" fill="#E1F6F4"/>
<g clip-path="url(#clip0)">
<path d="M12.52 16.368H13.184C13.83 16.368 14.239 16.746 14.244 17.268C14.252 17.805 13.817 18.187 13.158 18.187C12.56 18.183 12.121 17.862 12.09 17.431H11C11.03 18.345 11.791 19.119 13.153 19.119C14.393 19.119 15.438 18.459 15.425 17.321C15.412 16.368 14.678 15.941 14.133 15.889V15.827C14.573 15.757 15.258 15.3 15.241 14.452C15.228 13.546 14.441 12.882 13.188 12.887C11.878 12.892 11.145 13.621 11.114 14.557H12.217C12.239 14.166 12.6 13.806 13.153 13.806C13.685 13.806 14.081 14.136 14.081 14.619C14.085 15.098 13.698 15.454 13.153 15.454H12.521V16.368H12.52ZM16.126 13.001V19H18.315C20.125 19 21 17.893 21 15.985C21 14.091 20.139 13.001 18.315 13.001H16.126ZM17.313 13.968H18.157C19.269 13.968 19.778 14.654 19.778 16.008C19.778 17.361 19.273 18.028 18.157 18.028H17.313V13.968Z" fill="black"/>
<path d="M22 11C22.2652 11 22.5196 11.1054 22.7071 11.2929C22.8946 11.4804 23 11.7348 23 12V20C23 20.2652 22.8946 20.5196 22.7071 20.7071C22.5196 20.8946 22.2652 21 22 21H10C9.73478 21 9.48043 20.8946 9.29289 20.7071C9.10536 20.5196 9 20.2652 9 20V12C9 11.7348 9.10536 11.4804 9.29289 11.2929C9.48043 11.1054 9.73478 11 10 11H22ZM10 10C9.46957 10 8.96086 10.2107 8.58579 10.5858C8.21071 10.9609 8 11.4696 8 12V20C8 20.5304 8.21071 21.0391 8.58579 21.4142C8.96086 21.7893 9.46957 22 10 22H22C22.5304 22 23.0391 21.7893 23.4142 21.4142C23.7893 21.0391 24 20.5304 24 20V12C24 11.4696 23.7893 10.9609 23.4142 10.5858C23.0391 10.2107 22.5304 10 22 10H10Z" fill="black"/>
</g>
<defs>
<clipPath id="clip0">
<rect width="16" height="16" fill="white" transform="translate(8 8)"/>
</clipPath>
</defs>
</svg>
