<svg width="48" height="48" viewBox="0 0 48 48" fill="none" xmlns="http://www.w3.org/2000/svg">
<rect width="48" height="48" rx="8" fill="#166678"/>
<path d="M24.5649 18.3984H23.4375C23.3344 18.3984 23.25 18.4828 23.25 18.5859V25.0383C23.25 25.0992 23.2782 25.1555 23.3274 25.1906L27.2016 28.0195C27.286 28.0805 27.4032 28.0641 27.4641 27.9797L28.1344 27.0656C28.1977 26.9789 28.1789 26.8617 28.0946 26.8031L24.7524 24.3867V18.5859C24.7524 18.4828 24.668 18.3984 24.5649 18.3984ZM29.7164 20.1609L33.3914 21.0586C33.5086 21.0867 33.6235 20.9977 33.6235 20.8781L33.6422 17.093C33.6422 16.9359 33.4618 16.8469 33.3399 16.9453L29.6461 19.8305C29.6182 19.8521 29.597 19.8811 29.5848 19.9142C29.5727 19.9474 29.5701 19.9833 29.5775 20.0178C29.5848 20.0523 29.6017 20.0841 29.6263 20.1094C29.6509 20.1347 29.6821 20.1526 29.7164 20.1609ZM33.6469 27.218L32.318 26.7609C32.2717 26.7451 32.221 26.7479 32.1767 26.769C32.1325 26.79 32.0982 26.8275 32.0813 26.8734C32.0367 26.993 31.9899 27.1102 31.9407 27.2273C31.5235 28.2141 30.9258 29.1023 30.1618 29.8641C29.4062 30.622 28.5107 31.2261 27.525 31.643C26.5039 32.0747 25.4063 32.2963 24.2977 32.2945C23.1774 32.2945 22.0922 32.0766 21.0703 31.643C20.0847 31.2261 19.1892 30.622 18.4336 29.8641C17.6719 29.1023 17.0743 28.2141 16.6547 27.2273C16.2254 26.2057 16.0054 25.1082 16.0078 24C16.0078 22.8797 16.2258 21.7922 16.6594 20.7703C17.0766 19.7836 17.6743 18.8953 18.4383 18.1336C19.1939 17.3757 20.0893 16.7715 21.075 16.3547C22.0922 15.9211 23.1797 15.7031 24.3 15.7031C25.4203 15.7031 26.5055 15.9211 27.5274 16.3547C28.5131 16.7715 29.4085 17.3757 30.1641 18.1336C30.4032 18.375 30.6282 18.6258 30.8344 18.8906L32.236 17.7938C30.3914 15.4359 27.5203 13.9195 24.2953 13.9219C18.6797 13.9242 14.1703 18.4852 14.2266 24.1031C14.2828 29.6227 18.7711 34.0781 24.3 34.0781C28.6477 34.0781 32.3508 31.3219 33.7617 27.4617C33.7969 27.3633 33.7453 27.2531 33.6469 27.218Z" fill="#E1F6F4"/>
</svg>
